<?xml version="1.0" encoding="utf-8"?>
<svg xmlns="http://www.w3.org/2000/svg" viewBox="0 43.104 1440 161.951" xmlns:bx="https://boxy-svg.com" width="1440px" height="161.951px"><defs><bx:export><bx:file format="svg"/></bx:export></defs><path fill="#1e2030" fill-opacity="1" d="M0,64L48,69.3C96,75,192,85,288,106.7C384,128,480,160,576,149.3C672,139,768,85,864,80C960,75,1056,117,1152,144C1248,171,1344,181,1392,186.7L1440,192L1440,320L1392,320C1344,320,1248,320,1152,320C1056,320,960,320,864,320C768,320,672,320,576,320C480,320,384,320,288,320C192,320,96,320,48,320L0,320Z"/></svg>